<?xml version="1.0" encoding="utf-8"?>
<!-- Generator: Adobe Illustrator 25.0.0, SVG Export Plug-In . SVG Version: 6.00 Build 0)  -->
<svg version="1.1" id="Layer_1" xmlns="http://www.w3.org/2000/svg" xmlns:xlink="http://www.w3.org/1999/xlink" x="0px" y="0px"
	 viewBox="0 0 1000 1000" style="enable-background:new 0 0 1000 1000;" xml:space="preserve">
<style type="text/css">
	.st0{fill-rule:evenodd;clip-rule:evenodd;fill:#FFFFFF;}
</style>
<desc>Created with Sketch.</desc>
<g id="Artboard">
	<path id="Path-3" class="st0" d="M97.2,446.2C347.9,337,515.1,265,598.8,230.2C837.6,130.8,887.2,113.6,919.6,113
		c7.1-0.1,23,1.6,33.3,10c8.7,7.1,11.1,16.6,12.2,23.3c1.1,6.7,2.6,21.9,1.4,33.9c-12.9,136-68.9,466-97.4,618.3
		c-12.1,64.4-35.8,86.1-58.8,88.2c-49.9,4.6-87.9-33-136.2-64.7c-75.7-49.6-118.5-80.5-191.9-128.9c-84.9-56-29.9-86.7,18.5-137
		c12.7-13.2,232.7-213.3,237-231.5c0.5-2.3,1-10.7-4-15.2c-5-4.5-12.5-2.9-17.8-1.7c-7.6,1.7-128.5,81.6-362.8,239.8
		c-34.3,23.6-65.4,35.1-93.3,34.4c-30.7-0.7-89.8-17.4-133.7-31.6c-53.9-17.5-96.7-26.8-92.9-56.5C35.2,478.2,56.5,462.4,97.2,446.2
		z"/>
</g>
</svg>
